<mxfile host="65bd71144e" pages="2">
    <diagram id="-ziX3bFwX-yWajKhu8Ju" name="Page-1">
        <mxGraphModel dx="921" dy="980" grid="1" gridSize="10" guides="1" tooltips="1" connect="1" arrows="1" fold="1" page="1" pageScale="1" pageWidth="1600" pageHeight="1200" background="none" math="0" shadow="0">
            <root>
                <mxCell id="0"/>
                <mxCell id="1" parent="0"/>
                <mxCell id="eJnfNR-iyFS4deJ8VSGn-20" value="Recipe" style="swimlane;startSize=40;rounded=1;" parent="1" vertex="1">
                    <mxGeometry x="80" y="80" width="160" height="200" as="geometry">
                        <mxRectangle x="120" y="400" width="70" height="23" as="alternateBounds"/>
                    </mxGeometry>
                </mxCell>
                <mxCell id="eJnfNR-iyFS4deJ8VSGn-31" style="edgeStyle=orthogonalEdgeStyle;orthogonalLoop=1;jettySize=auto;html=1;entryX=0.5;entryY=0;entryDx=0;entryDy=0;startArrow=none;startFill=0;endArrow=classic;endFill=1;curved=1;" parent="eJnfNR-iyFS4deJ8VSGn-20" source="eJnfNR-iyFS4deJ8VSGn-21" target="eJnfNR-iyFS4deJ8VSGn-22" edge="1">
                    <mxGeometry relative="1" as="geometry"/>
                </mxCell>
                <mxCell id="eJnfNR-iyFS4deJ8VSGn-21" value="Ingredient" style="whiteSpace=wrap;html=1;rounded=1;" parent="eJnfNR-iyFS4deJ8VSGn-20" vertex="1">
                    <mxGeometry x="20" y="60" width="120" height="40" as="geometry"/>
                </mxCell>
                <mxCell id="eJnfNR-iyFS4deJ8VSGn-22" value="Direction" style="whiteSpace=wrap;html=1;rounded=1;" parent="eJnfNR-iyFS4deJ8VSGn-20" vertex="1">
                    <mxGeometry x="20" y="120" width="120" height="20" as="geometry"/>
                </mxCell>
                <mxCell id="eJnfNR-iyFS4deJ8VSGn-23" value="Custom Units" style="whiteSpace=wrap;html=1;rounded=1;" parent="eJnfNR-iyFS4deJ8VSGn-20" vertex="1">
                    <mxGeometry x="20" y="160" width="120" height="20" as="geometry"/>
                </mxCell>
                <mxCell id="eJnfNR-iyFS4deJ8VSGn-32" style="edgeStyle=orthogonalEdgeStyle;orthogonalLoop=1;jettySize=auto;html=1;exitX=0.5;exitY=0;exitDx=0;exitDy=0;startArrow=none;startFill=0;endArrow=classic;endFill=1;entryX=1;entryY=0.25;entryDx=0;entryDy=0;curved=1;" parent="eJnfNR-iyFS4deJ8VSGn-20" source="eJnfNR-iyFS4deJ8VSGn-20" target="eJnfNR-iyFS4deJ8VSGn-21" edge="1">
                    <mxGeometry relative="1" as="geometry">
                        <mxPoint x="220" y="60" as="targetPoint"/>
                        <Array as="points">
                            <mxPoint x="80" y="-20"/>
                            <mxPoint x="180" y="-20"/>
                            <mxPoint x="180" y="70"/>
                        </Array>
                    </mxGeometry>
                </mxCell>
                <mxCell id="eJnfNR-iyFS4deJ8VSGn-34" style="edgeStyle=orthogonalEdgeStyle;orthogonalLoop=1;jettySize=auto;html=1;entryX=1;entryY=0.75;entryDx=0;entryDy=0;startArrow=none;startFill=0;endArrow=classic;endFill=1;exitX=0.5;exitY=0;exitDx=0;exitDy=0;curved=1;" parent="1" source="eJnfNR-iyFS4deJ8VSGn-25" target="eJnfNR-iyFS4deJ8VSGn-21" edge="1">
                    <mxGeometry relative="1" as="geometry">
                        <Array as="points">
                            <mxPoint x="420" y="60"/>
                            <mxPoint x="300" y="60"/>
                            <mxPoint x="300" y="170"/>
                        </Array>
                    </mxGeometry>
                </mxCell>
                <mxCell id="eJnfNR-iyFS4deJ8VSGn-25" value="Food" style="swimlane;startSize=40;rounded=1;" parent="1" vertex="1">
                    <mxGeometry x="340" y="80" width="160" height="140" as="geometry">
                        <mxRectangle x="120" y="400" width="70" height="23" as="alternateBounds"/>
                    </mxGeometry>
                </mxCell>
                <mxCell id="eJnfNR-iyFS4deJ8VSGn-28" value="Custom Units" style="whiteSpace=wrap;html=1;rounded=1;" parent="eJnfNR-iyFS4deJ8VSGn-25" vertex="1">
                    <mxGeometry x="20" y="100" width="120" height="20" as="geometry"/>
                </mxCell>
                <mxCell id="eJnfNR-iyFS4deJ8VSGn-35" value="Nutrition Facts" style="whiteSpace=wrap;html=1;rounded=1;" parent="eJnfNR-iyFS4deJ8VSGn-25" vertex="1">
                    <mxGeometry x="20" y="60" width="120" height="20" as="geometry"/>
                </mxCell>
            </root>
        </mxGraphModel>
    </diagram>
    <diagram id="9y6RuCaIingo3eEHF8ff" name="Page-2">
        <mxGraphModel dx="921" dy="980" grid="1" gridSize="10" guides="1" tooltips="1" connect="1" arrows="1" fold="1" page="1" pageScale="1" pageWidth="1600" pageHeight="1200" math="0" shadow="0">
            <root>
                <mxCell id="ecprPGwCRflRA8xnhtbg-0"/>
                <mxCell id="ecprPGwCRflRA8xnhtbg-1" parent="ecprPGwCRflRA8xnhtbg-0"/>
                <mxCell id="ecprPGwCRflRA8xnhtbg-2" style="edgeStyle=orthogonalEdgeStyle;curved=1;rounded=0;orthogonalLoop=1;jettySize=auto;html=1;exitX=1;exitY=0.5;exitDx=0;exitDy=0;startArrow=none;startFill=0;endArrow=classic;endFill=1;entryX=0;entryY=0.5;entryDx=0;entryDy=0;" parent="ecprPGwCRflRA8xnhtbg-1" source="ecprPGwCRflRA8xnhtbg-3" target="ecprPGwCRflRA8xnhtbg-5" edge="1">
                    <mxGeometry relative="1" as="geometry">
                        <mxPoint x="320" y="120" as="targetPoint"/>
                    </mxGeometry>
                </mxCell>
                <mxCell id="ecprPGwCRflRA8xnhtbg-3" value="G" style="whiteSpace=wrap;html=1;rounded=1;" parent="ecprPGwCRflRA8xnhtbg-1" vertex="1">
                    <mxGeometry x="180" y="100" width="80" height="40" as="geometry"/>
                </mxCell>
                <mxCell id="ecprPGwCRflRA8xnhtbg-4" style="edgeStyle=orthogonalEdgeStyle;curved=1;rounded=0;orthogonalLoop=1;jettySize=auto;html=1;entryX=0;entryY=0.5;entryDx=0;entryDy=0;startArrow=none;startFill=0;endArrow=classic;endFill=1;" parent="ecprPGwCRflRA8xnhtbg-1" source="ecprPGwCRflRA8xnhtbg-5" target="ecprPGwCRflRA8xnhtbg-7" edge="1">
                    <mxGeometry relative="1" as="geometry"/>
                </mxCell>
                <mxCell id="ecprPGwCRflRA8xnhtbg-5" value="Density" style="ellipse;whiteSpace=wrap;html=1;rounded=1;" parent="ecprPGwCRflRA8xnhtbg-1" vertex="1">
                    <mxGeometry x="300" y="100" width="80" height="40" as="geometry"/>
                </mxCell>
                <mxCell id="ecprPGwCRflRA8xnhtbg-6" style="edgeStyle=orthogonalEdgeStyle;curved=1;rounded=0;orthogonalLoop=1;jettySize=auto;html=1;entryX=0;entryY=0.5;entryDx=0;entryDy=0;startArrow=none;startFill=0;endArrow=classic;endFill=1;" parent="ecprPGwCRflRA8xnhtbg-1" source="ecprPGwCRflRA8xnhtbg-7" target="ecprPGwCRflRA8xnhtbg-9" edge="1">
                    <mxGeometry relative="1" as="geometry"/>
                </mxCell>
                <mxCell id="ecprPGwCRflRA8xnhtbg-7" value="ML" style="whiteSpace=wrap;html=1;rounded=1;" parent="ecprPGwCRflRA8xnhtbg-1" vertex="1">
                    <mxGeometry x="420" y="100" width="80" height="40" as="geometry"/>
                </mxCell>
                <mxCell id="ecprPGwCRflRA8xnhtbg-8" style="edgeStyle=orthogonalEdgeStyle;curved=1;rounded=0;orthogonalLoop=1;jettySize=auto;html=1;entryX=0;entryY=0.5;entryDx=0;entryDy=0;startArrow=none;startFill=0;endArrow=classic;endFill=1;" parent="ecprPGwCRflRA8xnhtbg-1" source="ecprPGwCRflRA8xnhtbg-9" target="ecprPGwCRflRA8xnhtbg-11" edge="1">
                    <mxGeometry relative="1" as="geometry"/>
                </mxCell>
                <mxCell id="ecprPGwCRflRA8xnhtbg-9" value="Unit" style="ellipse;whiteSpace=wrap;html=1;rounded=1;" parent="ecprPGwCRflRA8xnhtbg-1" vertex="1">
                    <mxGeometry x="540" y="100" width="80" height="40" as="geometry"/>
                </mxCell>
                <mxCell id="ecprPGwCRflRA8xnhtbg-10" style="edgeStyle=orthogonalEdgeStyle;curved=1;rounded=0;orthogonalLoop=1;jettySize=auto;html=1;exitX=1;exitY=0.5;exitDx=0;exitDy=0;entryX=0;entryY=0.5;entryDx=0;entryDy=0;entryPerimeter=0;fontFamily=Helvetica;startArrow=none;startFill=0;endArrow=classic;endFill=1;" parent="ecprPGwCRflRA8xnhtbg-1" source="ecprPGwCRflRA8xnhtbg-11" target="ecprPGwCRflRA8xnhtbg-28" edge="1">
                    <mxGeometry relative="1" as="geometry"/>
                </mxCell>
                <mxCell id="ecprPGwCRflRA8xnhtbg-11" value="Cup" style="whiteSpace=wrap;html=1;rounded=1;" parent="ecprPGwCRflRA8xnhtbg-1" vertex="1">
                    <mxGeometry x="660" y="100" width="80" height="40" as="geometry"/>
                </mxCell>
                <mxCell id="ecprPGwCRflRA8xnhtbg-12" value="Only for volume units" style="swimlane;rounded=1;startSize=40;fontFamily=Helvetica;fontStyle=0;glass=0;shadow=0;" parent="ecprPGwCRflRA8xnhtbg-1" vertex="1">
                    <mxGeometry x="280" y="40" width="240" height="120" as="geometry">
                        <mxRectangle x="760" y="80" width="150" height="40" as="alternateBounds"/>
                    </mxGeometry>
                </mxCell>
                <mxCell id="ecprPGwCRflRA8xnhtbg-13" style="edgeStyle=orthogonalEdgeStyle;curved=1;rounded=0;orthogonalLoop=1;jettySize=auto;html=1;exitX=1;exitY=0.5;exitDx=0;exitDy=0;entryX=0;entryY=0.5;entryDx=0;entryDy=0;fontFamily=Helvetica;startArrow=none;startFill=0;endArrow=classic;endFill=1;" parent="ecprPGwCRflRA8xnhtbg-1" source="ecprPGwCRflRA8xnhtbg-15" target="ecprPGwCRflRA8xnhtbg-19" edge="1">
                    <mxGeometry relative="1" as="geometry"/>
                </mxCell>
                <mxCell id="ecprPGwCRflRA8xnhtbg-14" style="edgeStyle=orthogonalEdgeStyle;curved=1;rounded=0;orthogonalLoop=1;jettySize=auto;html=1;fontFamily=Helvetica;startArrow=none;startFill=0;endArrow=classic;endFill=1;exitX=0.5;exitY=0;exitDx=0;exitDy=0;" parent="ecprPGwCRflRA8xnhtbg-1" source="ecprPGwCRflRA8xnhtbg-15" edge="1">
                    <mxGeometry relative="1" as="geometry">
                        <mxPoint x="340" y="140" as="targetPoint"/>
                    </mxGeometry>
                </mxCell>
                <mxCell id="ecprPGwCRflRA8xnhtbg-15" value="G/ML" style="whiteSpace=wrap;html=1;rounded=1;" parent="ecprPGwCRflRA8xnhtbg-1" vertex="1">
                    <mxGeometry x="180" y="260" width="80" height="40" as="geometry"/>
                </mxCell>
                <mxCell id="ecprPGwCRflRA8xnhtbg-16" style="edgeStyle=orthogonalEdgeStyle;curved=1;rounded=0;orthogonalLoop=1;jettySize=auto;html=1;entryX=0;entryY=0.5;entryDx=0;entryDy=0;entryPerimeter=0;fontFamily=Helvetica;startArrow=none;startFill=0;endArrow=classic;endFill=1;" parent="ecprPGwCRflRA8xnhtbg-1" source="ecprPGwCRflRA8xnhtbg-17" target="ecprPGwCRflRA8xnhtbg-28" edge="1">
                    <mxGeometry relative="1" as="geometry"/>
                </mxCell>
                <mxCell id="ecprPGwCRflRA8xnhtbg-17" value="OZ/CUP" style="whiteSpace=wrap;html=1;rounded=1;" parent="ecprPGwCRflRA8xnhtbg-1" vertex="1">
                    <mxGeometry x="660" y="260" width="80" height="40" as="geometry"/>
                </mxCell>
                <mxCell id="ecprPGwCRflRA8xnhtbg-18" style="edgeStyle=orthogonalEdgeStyle;curved=1;rounded=0;orthogonalLoop=1;jettySize=auto;html=1;exitX=1;exitY=0.5;exitDx=0;exitDy=0;entryX=0;entryY=0.5;entryDx=0;entryDy=0;fontFamily=Helvetica;startArrow=none;startFill=0;endArrow=classic;endFill=1;" parent="ecprPGwCRflRA8xnhtbg-1" source="ecprPGwCRflRA8xnhtbg-19" target="ecprPGwCRflRA8xnhtbg-21" edge="1">
                    <mxGeometry relative="1" as="geometry"/>
                </mxCell>
                <mxCell id="ecprPGwCRflRA8xnhtbg-19" value="Weight Unit" style="ellipse;whiteSpace=wrap;html=1;rounded=1;direction=east;" parent="ecprPGwCRflRA8xnhtbg-1" vertex="1">
                    <mxGeometry x="300" y="260" width="80" height="40" as="geometry"/>
                </mxCell>
                <mxCell id="ecprPGwCRflRA8xnhtbg-20" style="edgeStyle=orthogonalEdgeStyle;curved=1;rounded=0;orthogonalLoop=1;jettySize=auto;html=1;exitX=1;exitY=0.5;exitDx=0;exitDy=0;entryX=0;entryY=0.5;entryDx=0;entryDy=0;fontFamily=Helvetica;startArrow=none;startFill=0;endArrow=classic;endFill=1;" parent="ecprPGwCRflRA8xnhtbg-1" source="ecprPGwCRflRA8xnhtbg-21" target="ecprPGwCRflRA8xnhtbg-23" edge="1">
                    <mxGeometry relative="1" as="geometry"/>
                </mxCell>
                <mxCell id="ecprPGwCRflRA8xnhtbg-21" value="OZ/ML" style="whiteSpace=wrap;html=1;rounded=1;" parent="ecprPGwCRflRA8xnhtbg-1" vertex="1">
                    <mxGeometry x="420" y="260" width="80" height="40" as="geometry"/>
                </mxCell>
                <mxCell id="ecprPGwCRflRA8xnhtbg-22" style="edgeStyle=orthogonalEdgeStyle;curved=1;rounded=0;orthogonalLoop=1;jettySize=auto;html=1;entryX=0;entryY=0.5;entryDx=0;entryDy=0;fontFamily=Helvetica;startArrow=none;startFill=0;endArrow=classic;endFill=1;" parent="ecprPGwCRflRA8xnhtbg-1" source="ecprPGwCRflRA8xnhtbg-23" target="ecprPGwCRflRA8xnhtbg-17" edge="1">
                    <mxGeometry relative="1" as="geometry"/>
                </mxCell>
                <mxCell id="ecprPGwCRflRA8xnhtbg-23" value="Volume Unit" style="ellipse;whiteSpace=wrap;html=1;rounded=1;" parent="ecprPGwCRflRA8xnhtbg-1" vertex="1">
                    <mxGeometry x="540" y="260" width="80" height="40" as="geometry"/>
                </mxCell>
                <mxCell id="ecprPGwCRflRA8xnhtbg-24" value="Density" style="swimlane;rounded=1;startSize=40;fontFamily=Helvetica;fontStyle=0;glass=0;shadow=0;direction=west;" parent="ecprPGwCRflRA8xnhtbg-1" vertex="1">
                    <mxGeometry x="160" y="240" width="600" height="120" as="geometry">
                        <mxRectangle x="760" y="80" width="150" height="40" as="alternateBounds"/>
                    </mxGeometry>
                </mxCell>
                <mxCell id="ecprPGwCRflRA8xnhtbg-25" style="edgeStyle=orthogonalEdgeStyle;curved=1;rounded=0;orthogonalLoop=1;jettySize=auto;html=1;entryX=0;entryY=0.5;entryDx=0;entryDy=0;fontFamily=Helvetica;startArrow=none;startFill=0;endArrow=classic;endFill=1;" parent="ecprPGwCRflRA8xnhtbg-1" source="ecprPGwCRflRA8xnhtbg-27" target="ecprPGwCRflRA8xnhtbg-3" edge="1">
                    <mxGeometry relative="1" as="geometry"/>
                </mxCell>
                <mxCell id="ecprPGwCRflRA8xnhtbg-26" style="edgeStyle=orthogonalEdgeStyle;curved=1;rounded=0;orthogonalLoop=1;jettySize=auto;html=1;entryX=0;entryY=0.5;entryDx=0;entryDy=0;fontFamily=Helvetica;startArrow=none;startFill=0;endArrow=classic;endFill=1;" parent="ecprPGwCRflRA8xnhtbg-1" source="ecprPGwCRflRA8xnhtbg-27" target="ecprPGwCRflRA8xnhtbg-15" edge="1">
                    <mxGeometry relative="1" as="geometry"/>
                </mxCell>
                <mxCell id="ecprPGwCRflRA8xnhtbg-27" value="DB" style="shape=cylinder3;whiteSpace=wrap;html=1;boundedLbl=1;backgroundOutline=1;size=15;rounded=1;shadow=0;glass=0;fontFamily=Helvetica;" parent="ecprPGwCRflRA8xnhtbg-1" vertex="1">
                    <mxGeometry x="40" y="160" width="60" height="80" as="geometry"/>
                </mxCell>
                <mxCell id="ecprPGwCRflRA8xnhtbg-28" value="View" style="shape=note;whiteSpace=wrap;html=1;backgroundOutline=1;darkOpacity=0.05;rounded=1;shadow=0;glass=0;fontFamily=Helvetica;" parent="ecprPGwCRflRA8xnhtbg-1" vertex="1">
                    <mxGeometry x="820" y="160" width="64" height="80" as="geometry"/>
                </mxCell>
            </root>
        </mxGraphModel>
    </diagram>
</mxfile>